<svg width="40" height="34" viewBox="0 0 40 34" fill="none" xmlns="http://www.w3.org/2000/svg">
<path d="M21.1624 17.448C21.4824 17.448 21.6424 17.8107 21.6424 18.536C21.6424 20.0507 20.9384 21.5227 19.5304 22.952C18.1224 24.36 16.405 25.0747 14.3784 25.096C12.949 25.096 11.2957 24.5307 9.41838 23.4C8.07438 24.8293 6.39971 25.544 4.39438 25.544C3.07171 25.544 2.10104 25.2133 1.48238 24.552C0.863708 23.8907 0.554375 23.016 0.554375 21.928C0.554375 20.84 0.949042 20.0293 1.73838 19.496C2.54904 18.9413 3.57304 18.664 4.81038 18.664C5.47171 18.664 6.09038 18.696 6.66638 18.76C6.66638 16.1573 6.95438 13.6187 7.53038 11.144C6.82638 10.7813 6.21838 10.376 5.70638 9.928C5.21571 9.48 4.97038 9.128 4.97038 8.872C4.97038 8.18933 5.11971 7.848 5.41838 7.848C5.84504 7.848 6.28238 7.976 6.73038 8.232C7.19971 8.46667 7.70104 8.648 8.23438 8.776C9.55704 4.95733 11.3704 2.49333 13.6744 1.384C14.485 0.999999 15.3384 0.807999 16.2344 0.807999C19.605 0.807999 21.2904 2.22667 21.2904 5.064C21.2904 6.68533 20.6824 8.08267 19.4664 9.256C17.781 10.8773 15.221 11.7307 11.7864 11.816C11.5517 13.608 11.4344 15.7307 11.4344 18.184C11.4344 18.7813 11.3597 19.4533 11.2104 20.2C11.957 20.584 12.6824 20.936 13.3864 21.256C14.0904 21.576 14.9544 21.736 15.9784 21.736C16.5117 21.736 17.0344 21.512 17.5464 21.064C18.0797 20.616 18.5704 20.1253 19.0184 19.592C19.4877 19.0587 19.9037 18.568 20.2664 18.12C20.629 17.672 20.9277 17.448 21.1624 17.448ZM16.1704 3.944C14.3784 3.944 13.077 5.65067 12.2664 9.064C13.8024 8.936 15.093 8.50933 16.1384 7.784C17.205 7.03733 17.7384 6.29067 17.7384 5.544C17.7384 4.47733 17.2157 3.944 16.1704 3.944ZM3.65838 22.152C3.67971 22.7493 4.09571 23.048 4.90638 23.048C5.71704 23.048 6.22904 22.5787 6.44238 21.64C5.84504 21.3413 5.35438 21.192 4.97038 21.192C4.11704 21.192 3.67971 21.512 3.65838 22.152ZM26.1799 11.592C27.2892 10.3333 28.7079 9.704 30.4359 9.704C32.9105 9.704 34.4785 10.7067 35.1399 12.712C35.3319 13.3093 35.4279 13.9707 35.4279 14.696C35.4279 16.3173 34.8945 17.9173 33.8279 19.496C32.7825 21.0747 31.5132 22.1413 30.0199 22.696H30.4039C31.9612 22.696 33.5399 22.12 35.1399 20.968C36.1639 20.2427 36.9639 19.496 37.5399 18.728C38.1372 17.9387 38.5852 17.544 38.8839 17.544C39.1825 17.544 39.3319 17.8853 39.3319 18.568C39.3319 19.7627 38.8199 20.968 37.7959 22.184C36.2599 23.9333 34.2972 24.9573 31.9079 25.256C30.1799 25.448 28.9532 25.48 28.2279 25.352C27.5025 25.224 26.9479 25.064 26.5639 24.872C25.7319 24.4453 25.3159 23.8053 25.3159 22.952C25.3159 22.4827 25.4119 22.056 25.6039 21.672C27.2892 21.672 28.5692 21.032 29.4439 19.752C30.3185 18.472 30.7559 16.872 30.7559 14.952C30.7559 14.4827 30.5852 14.0667 30.2439 13.704C29.9025 13.32 29.4439 13.128 28.8679 13.128C28.3132 13.128 27.7052 13.3733 27.0439 13.864C26.3825 14.3547 25.8492 14.9733 25.4439 15.72C25.0599 16.4453 24.7079 17.1707 24.3879 17.896C24.0679 18.6 23.8119 19.496 23.6199 20.584C23.2785 22.5467 22.8839 25.0213 22.4359 28.008C22.0092 31.016 21.7425 32.6267 21.6359 32.84C21.5292 33.0747 21.3692 33.288 21.1559 33.48C20.9425 33.672 20.7185 33.768 20.4839 33.768C20.0572 33.768 19.7052 33.64 19.4279 33.384C18.6599 32.7227 18.2119 32.2107 18.0839 31.848C17.9559 31.5067 17.8919 31.0587 17.8919 30.504C17.8919 28.4133 18.2439 25.48 18.9479 21.704C19.6519 17.928 20.8679 14.0027 22.5959 9.928C22.8519 9.33067 23.2999 9.032 23.9399 9.032C24.6012 9.032 25.2305 9.608 25.8279 10.76C25.9985 11.0587 26.1159 11.336 26.1799 11.592Z" fill="#747BFF"/>
</svg>
