<svg width="27" height="32" viewBox="0 0 27 32" fill="none" xmlns="http://www.w3.org/2000/svg">
<path d="M17.8411 32C16.8811 32 15.9318 31.7227 14.9931 31.168C14.0758 30.6347 12.9025 29.8027 11.4731 28.672C10.4065 27.8187 9.48913 27.1253 8.72113 26.592C7.97446 26.08 7.15313 25.6427 6.25713 25.28C5.38246 24.9173 4.48646 24.736 3.56913 24.736C3.24913 24.736 3.00379 24.7467 2.83313 24.768L7.60113 2.592C6.17179 3.168 5.06246 4.05333 4.27313 5.248C3.50513 6.42133 3.12113 7.86133 3.12113 9.568C3.12113 10.3573 3.19579 10.912 3.34513 11.232C3.49446 11.5307 3.56913 11.7013 3.56913 11.744C2.41713 11.744 1.55313 11.5093 0.977125 11.04C0.422458 10.5493 0.145125 9.74933 0.145125 8.64C0.145125 7.27467 0.699792 5.952 1.80913 4.672C2.93979 3.37067 4.37979 2.32533 6.12913 1.536C7.87846 0.725333 9.62779 0.32 11.3771 0.32C11.6758 0.32 12.1025 0.341333 12.6571 0.383999L7.72913 23.36C8.32646 23.5093 8.93446 23.7227 9.55313 24C10.1931 24.2987 10.9611 24.6933 11.8571 25.184C13.2438 25.9307 14.4278 26.496 15.4091 26.88C16.3905 27.2853 17.4145 27.488 18.4811 27.488C19.4411 27.488 20.3371 27.3173 21.1691 26.976C20.9985 28.5333 20.6145 29.76 20.0171 30.656C19.4411 31.552 18.7158 32 17.8411 32ZM14.5101 6.816H19.1181L18.6061 9.216C19.6728 8.29867 20.9208 7.84 22.3501 7.84C23.5448 7.84 24.4941 8.23467 25.1981 9.024C25.9021 9.81333 26.2541 11.104 26.2541 12.896C26.2541 14.5813 26.0088 16.288 25.5181 18.016C25.0275 19.7227 24.1955 21.184 23.0221 22.4C21.8488 23.5947 20.3021 24.192 18.3821 24.192C17.0168 24.192 16.1101 23.808 15.6621 23.04L13.9981 30.848L9.16612 32L14.5101 6.816ZM17.3901 21.408C18.4141 21.408 19.2568 20.928 19.9181 19.968C20.6008 19.008 21.0915 17.8667 21.3901 16.544C21.7101 15.2 21.8701 13.952 21.8701 12.8C21.8701 11.0293 21.3368 10.144 20.2701 10.144C19.8861 10.144 19.4915 10.2827 19.0861 10.56C18.7021 10.8373 18.3608 11.2213 18.0621 11.712L16.1741 20.672C16.3448 21.1627 16.7501 21.408 17.3901 21.408Z" fill="#747BFF"/>
</svg>
