<svg width="20" height="44" viewBox="0 0 20 44" fill="none" xmlns="http://www.w3.org/2000/svg">
<path  d="M15.7188 10.0938C16.0312 9.88542 16.3281 9.63542 16.6094 9.34375C16.8906 9.05208 17.1406 8.72917 17.3594 8.375C17.5781 8.01042 17.75 7.625 17.875 7.21875C18 6.80208 18.0625 6.36979 18.0625 5.92188C18.0625 5.24479 17.9115 4.63542 17.6094 4.09375C17.3177 3.54167 16.9167 3.07812 16.4062 2.70312C15.8958 2.31771 15.3021 2.02604 14.625 1.82812C13.9583 1.61979 13.25 1.51562 12.5 1.51562C11.5625 1.51562 10.651 1.64583 9.76562 1.90625C8.88021 2.15625 8.04688 2.51042 7.26562 2.96875C6.48438 3.42708 5.76562 3.97917 5.10938 4.625C4.46354 5.27083 3.90104 5.98438 3.42188 6.76562C2.95312 7.54688 2.58854 8.38542 2.32812 9.28125C2.06771 10.1771 1.9375 11.1094 1.9375 12.0781C1.9375 12.7448 1.99479 13.3854 2.10938 14C2.22396 14.6146 2.36458 15.2188 2.53125 15.8125C2.69792 16.4062 2.88021 16.9948 3.07812 17.5781C3.28646 18.151 3.47396 18.7292 3.64062 19.3125C3.80729 19.8958 3.94792 20.4896 4.0625 21.0938C4.17708 21.6979 4.23438 22.3177 4.23438 22.9531C4.23438 23.1094 4.22396 23.2656 4.20312 23.4219C4.19271 23.5781 4.16146 23.7292 4.10938 23.875C4.46354 24.0104 4.8125 24.1719 5.15625 24.3594C5.51042 24.5365 5.85417 24.7083 6.1875 24.875C6.53125 25.0312 6.86458 25.1667 7.1875 25.2812C7.51042 25.3958 7.82812 25.4531 8.14062 25.4531C8.46354 25.4531 8.73958 25.4062 8.96875 25.3125C9.20833 25.2292 9.41146 25.1042 9.57812 24.9375C9.74479 24.7708 9.88542 24.5781 10 24.3594C10.125 24.1406 10.2292 23.8958 10.3125 23.625L10.6406 23.6875C10.3177 24.6458 9.91667 25.3229 9.4375 25.7188C8.95833 26.1146 8.375 26.3125 7.6875 26.3125C7.30208 26.3125 6.93229 26.2552 6.57812 26.1406C6.23438 26.0365 5.90104 25.901 5.57812 25.7344C5.26562 25.5781 4.96354 25.4062 4.67188 25.2188C4.38021 25.0312 4.09896 24.8646 3.82812 24.7188C3.63021 25.0833 3.375 25.3958 3.0625 25.6562C2.75 25.9271 2.38542 26.0625 1.96875 26.0625C1.60417 26.0625 1.31771 25.9583 1.10938 25.75C0.911458 25.5417 0.8125 25.3229 0.8125 25.0938C0.8125 24.875 0.864583 24.6719 0.96875 24.4844C1.07292 24.2969 1.20833 24.1354 1.375 24C1.55208 23.8646 1.74479 23.7604 1.95312 23.6875C2.17188 23.6042 2.39062 23.5625 2.60938 23.5625C2.95312 23.5625 3.3125 23.625 3.6875 23.75C3.6875 23.6875 3.69271 23.6302 3.70312 23.5781C3.71354 23.5156 3.71875 23.4583 3.71875 23.4062C3.71875 22.8542 3.64583 22.2969 3.5 21.7344C3.36458 21.1615 3.1875 20.5885 2.96875 20.0156C2.76042 19.4323 2.53125 18.8438 2.28125 18.25C2.03125 17.6458 1.79688 17.0365 1.57812 16.4219C1.36979 15.8073 1.19271 15.1823 1.04688 14.5469C0.911458 13.901 0.84375 13.2448 0.84375 12.5781C0.84375 11.5469 0.994792 10.5365 1.29688 9.54688C1.60938 8.55729 2.04167 7.61979 2.59375 6.73438C3.14583 5.83854 3.79688 5.01562 4.54688 4.26562C5.30729 3.51562 6.13542 2.86979 7.03125 2.32812C7.9375 1.77604 8.89062 1.34896 9.89062 1.04688C10.901 0.734375 11.9271 0.578125 12.9688 0.578125C13.9479 0.578125 14.8073 0.703125 15.5469 0.953125C16.2969 1.20312 16.9219 1.54688 17.4219 1.98438C17.9219 2.42188 18.2969 2.9375 18.5469 3.53125C18.7969 4.125 18.9219 4.76562 18.9219 5.45312C18.9219 5.98438 18.8438 6.47917 18.6875 6.9375C18.5312 7.38542 18.3177 7.80729 18.0469 8.20312C17.776 8.59896 17.4531 8.96875 17.0781 9.3125C16.7135 9.65625 16.3177 9.97917 15.8906 10.2812L15.7188 10.0938ZM2.28125 25.2188C2.55208 25.2188 2.77604 25.1458 2.95312 25C3.14062 24.8646 3.29167 24.6927 3.40625 24.4844C3.20833 24.3906 3.01562 24.3125 2.82812 24.25C2.64062 24.1771 2.45833 24.1406 2.28125 24.1406C2.04167 24.1406 1.86458 24.2031 1.75 24.3281C1.63542 24.4531 1.57812 24.5833 1.57812 24.7188C1.57812 24.8646 1.63542 24.9844 1.75 25.0781C1.86458 25.1719 2.04167 25.2188 2.28125 25.2188ZM14.2969 15.5625C14.349 15.5625 14.3646 15.6667 14.3438 15.875C14.3333 16.0729 14.3073 16.3333 14.2656 16.6562C14.2344 16.9688 14.1979 17.3177 14.1562 17.7031C14.1146 18.0885 14.0938 18.4635 14.0938 18.8281C14.0938 19.5677 14.099 20.2604 14.1094 20.9062C14.1302 21.5521 14.1562 22.1823 14.1875 22.7969C14.5312 22.224 14.8802 21.7031 15.2344 21.2344C15.599 20.7656 15.9635 20.3646 16.3281 20.0312C16.6927 19.6979 17.0573 19.4427 17.4219 19.2656C17.7865 19.0781 18.151 18.9844 18.5156 18.9844C18.8073 18.9844 19.0521 19.0677 19.25 19.2344C19.4479 19.3906 19.5469 19.6719 19.5469 20.0781C19.5469 20.3698 19.4844 20.6667 19.3594 20.9688C19.2448 21.2604 19.0833 21.5573 18.875 21.8594C18.6771 22.151 18.4479 22.4375 18.1875 22.7188C17.9375 23 17.6823 23.2656 17.4219 23.5156C16.7969 24.099 16.0938 24.6667 15.3125 25.2188L15.1562 25.0312C15.7708 24.5 16.3229 23.9792 16.8125 23.4688C17.0208 23.25 17.224 23.026 17.4219 22.7969C17.6198 22.5573 17.7969 22.3229 17.9531 22.0938C18.1094 21.8542 18.2344 21.6302 18.3281 21.4219C18.4323 21.2031 18.4844 21 18.4844 20.8125C18.4844 20.75 18.474 20.6667 18.4531 20.5625C18.4427 20.4583 18.4062 20.3594 18.3438 20.2656C18.2812 20.1615 18.1875 20.0781 18.0625 20.0156C17.9479 19.9427 17.7917 19.9062 17.5938 19.9062C17.3542 19.9062 17.099 19.9896 16.8281 20.1562C16.5573 20.3229 16.276 20.5625 15.9844 20.875C15.7031 21.1771 15.4115 21.5521 15.1094 22C14.8177 22.4375 14.526 22.9271 14.2344 23.4688C14.276 24.2188 14.3229 24.9427 14.375 25.6406C14.4271 26.3385 14.474 27.0312 14.5156 27.7188C14.5677 28.4167 14.6042 29.125 14.625 29.8438C14.6562 30.5625 14.6719 31.3177 14.6719 32.1094C14.6719 33.9427 14.5677 35.5469 14.3594 36.9219C14.1615 38.2969 13.901 39.4427 13.5781 40.3594C13.2656 41.2865 12.9115 41.9792 12.5156 42.4375C12.1094 42.9062 11.7083 43.1406 11.3125 43.1406C11.0833 43.1406 10.8594 43.0469 10.6406 42.8594C10.4115 42.6719 10.2135 42.3958 10.0469 42.0312C9.86979 41.6771 9.72917 41.2396 9.625 40.7188C9.51042 40.1979 9.45312 39.599 9.45312 38.9219C9.45312 37.9323 9.54688 36.8333 9.73438 35.625C9.92188 34.4167 10.1875 33.1771 10.5312 31.9062C10.8646 30.6458 11.2604 29.3854 11.7188 28.125C12.1771 26.875 12.6719 25.7031 13.2031 24.6094V23.0469C13.2031 21.8177 13.25 20.7396 13.3438 19.8125C13.4479 18.875 13.5625 18.0938 13.6875 17.4688C13.8125 16.8333 13.9323 16.3594 14.0469 16.0469C14.1719 15.724 14.2552 15.5625 14.2969 15.5625ZM13.5625 32.75C13.5625 31.8333 13.5469 31.0625 13.5156 30.4375C13.4948 29.8229 13.4635 29.2604 13.4219 28.75C13.3906 28.25 13.3542 27.75 13.3125 27.25C13.2812 26.75 13.2552 26.1615 13.2344 25.4844C12.8385 26.3802 12.4688 27.3385 12.125 28.3594C11.7812 29.3906 11.4792 30.4531 11.2188 31.5469C10.9479 32.6406 10.7396 33.7448 10.5938 34.8594C10.4375 35.974 10.3594 37.0625 10.3594 38.125C10.3594 38.5312 10.3802 38.9844 10.4219 39.4844C10.4635 39.9844 10.5417 40.4531 10.6562 40.8906C10.7604 41.3281 10.901 41.6927 11.0781 41.9844C11.2448 42.2865 11.4635 42.4375 11.7344 42.4375C11.9427 42.4375 12.1354 42.3073 12.3125 42.0469C12.4896 41.7865 12.6458 41.4271 12.7812 40.9688C12.9167 40.5104 13.0312 39.9688 13.125 39.3438C13.2292 38.7292 13.3125 38.0625 13.375 37.3438C13.4375 36.625 13.4844 35.875 13.5156 35.0938C13.5469 34.3125 13.5625 33.5312 13.5625 32.75Z" fill="#0098ca"/>
</svg>
