<svg width="52" height="44" viewBox="0 0 52 44" fill="none" xmlns="http://www.w3.org/2000/svg">
<path d="M15.7969 10.0938C16.1094 9.88542 16.4062 9.63542 16.6875 9.34375C16.9688 9.05208 17.2188 8.72917 17.4375 8.375C17.6562 8.01042 17.8281 7.625 17.9531 7.21875C18.0781 6.80208 18.1406 6.36979 18.1406 5.92188C18.1406 5.24479 17.9896 4.63542 17.6875 4.09375C17.3958 3.54167 16.9948 3.07812 16.4844 2.70312C15.974 2.31771 15.3802 2.02604 14.7031 1.82812C14.0365 1.61979 13.3281 1.51562 12.5781 1.51562C11.6406 1.51562 10.7292 1.64583 9.84375 1.90625C8.95833 2.15625 8.125 2.51042 7.34375 2.96875C6.5625 3.42708 5.84375 3.97917 5.1875 4.625C4.54167 5.27083 3.97917 5.98438 3.5 6.76562C3.03125 7.54688 2.66667 8.38542 2.40625 9.28125C2.14583 10.1771 2.01562 11.1094 2.01562 12.0781C2.01562 12.7448 2.07292 13.3854 2.1875 14C2.30208 14.6146 2.44271 15.2188 2.60938 15.8125C2.77604 16.4062 2.95833 16.9948 3.15625 17.5781C3.36458 18.151 3.55208 18.7292 3.71875 19.3125C3.88542 19.8958 4.02604 20.4896 4.14062 21.0938C4.25521 21.6979 4.3125 22.3177 4.3125 22.9531C4.3125 23.1094 4.30208 23.2656 4.28125 23.4219C4.27083 23.5781 4.23958 23.7292 4.1875 23.875C4.54167 24.0104 4.89062 24.1719 5.23438 24.3594C5.58854 24.5365 5.93229 24.7083 6.26562 24.875C6.60938 25.0312 6.94271 25.1667 7.26562 25.2812C7.58854 25.3958 7.90625 25.4531 8.21875 25.4531C8.54167 25.4531 8.81771 25.4062 9.04688 25.3125C9.28646 25.2292 9.48958 25.1042 9.65625 24.9375C9.82292 24.7708 9.96354 24.5781 10.0781 24.3594C10.2031 24.1406 10.3073 23.8958 10.3906 23.625L10.7188 23.6875C10.3958 24.6458 9.99479 25.3229 9.51562 25.7188C9.03646 26.1146 8.45312 26.3125 7.76562 26.3125C7.38021 26.3125 7.01042 26.2552 6.65625 26.1406C6.3125 26.0365 5.97917 25.901 5.65625 25.7344C5.34375 25.5781 5.04167 25.4062 4.75 25.2188C4.45833 25.0312 4.17708 24.8646 3.90625 24.7188C3.70833 25.0833 3.45312 25.3958 3.14062 25.6562C2.82812 25.9271 2.46354 26.0625 2.04688 26.0625C1.68229 26.0625 1.39583 25.9583 1.1875 25.75C0.989583 25.5417 0.890625 25.3229 0.890625 25.0938C0.890625 24.875 0.942708 24.6719 1.04688 24.4844C1.15104 24.2969 1.28646 24.1354 1.45312 24C1.63021 23.8646 1.82292 23.7604 2.03125 23.6875C2.25 23.6042 2.46875 23.5625 2.6875 23.5625C3.03125 23.5625 3.39062 23.625 3.76562 23.75C3.76562 23.6875 3.77083 23.6302 3.78125 23.5781C3.79167 23.5156 3.79688 23.4583 3.79688 23.4062C3.79688 22.8542 3.72396 22.2969 3.57812 21.7344C3.44271 21.1615 3.26562 20.5885 3.04688 20.0156C2.83854 19.4323 2.60938 18.8438 2.35938 18.25C2.10938 17.6458 1.875 17.0365 1.65625 16.4219C1.44792 15.8073 1.27083 15.1823 1.125 14.5469C0.989583 13.901 0.921875 13.2448 0.921875 12.5781C0.921875 11.5469 1.07292 10.5365 1.375 9.54688C1.6875 8.55729 2.11979 7.61979 2.67188 6.73438C3.22396 5.83854 3.875 5.01562 4.625 4.26562C5.38542 3.51562 6.21354 2.86979 7.10938 2.32812C8.01562 1.77604 8.96875 1.34896 9.96875 1.04688C10.9792 0.734375 12.0052 0.578125 13.0469 0.578125C14.026 0.578125 14.8854 0.703125 15.625 0.953125C16.375 1.20312 17 1.54688 17.5 1.98438C18 2.42188 18.375 2.9375 18.625 3.53125C18.875 4.125 19 4.76562 19 5.45312C19 5.98438 18.9219 6.47917 18.7656 6.9375C18.6094 7.38542 18.3958 7.80729 18.125 8.20312C17.8542 8.59896 17.5312 8.96875 17.1562 9.3125C16.7917 9.65625 16.3958 9.97917 15.9688 10.2812L15.7969 10.0938ZM2.35938 25.2188C2.63021 25.2188 2.85417 25.1458 3.03125 25C3.21875 24.8646 3.36979 24.6927 3.48438 24.4844C3.28646 24.3906 3.09375 24.3125 2.90625 24.25C2.71875 24.1771 2.53646 24.1406 2.35938 24.1406C2.11979 24.1406 1.94271 24.2031 1.82812 24.3281C1.71354 24.4531 1.65625 24.5833 1.65625 24.7188C1.65625 24.8646 1.71354 24.9844 1.82812 25.0781C1.94271 25.1719 2.11979 25.2188 2.35938 25.2188ZM14.375 15.5625C14.4271 15.5625 14.4427 15.6667 14.4219 15.875C14.4115 16.0729 14.3854 16.3333 14.3438 16.6562C14.3125 16.9688 14.276 17.3177 14.2344 17.7031C14.1927 18.0885 14.1719 18.4635 14.1719 18.8281C14.1719 19.5677 14.1771 20.2604 14.1875 20.9062C14.2083 21.5521 14.2344 22.1823 14.2656 22.7969C14.6094 22.224 14.9583 21.7031 15.3125 21.2344C15.6771 20.7656 16.0417 20.3646 16.4062 20.0312C16.7708 19.6979 17.1354 19.4427 17.5 19.2656C17.8646 19.0781 18.2292 18.9844 18.5938 18.9844C18.8854 18.9844 19.1302 19.0677 19.3281 19.2344C19.526 19.3906 19.625 19.6719 19.625 20.0781C19.625 20.3698 19.5625 20.6667 19.4375 20.9688C19.3229 21.2604 19.1615 21.5573 18.9531 21.8594C18.7552 22.151 18.526 22.4375 18.2656 22.7188C18.0156 23 17.7604 23.2656 17.5 23.5156C16.875 24.099 16.1719 24.6667 15.3906 25.2188L15.2344 25.0312C15.849 24.5 16.401 23.9792 16.8906 23.4688C17.099 23.25 17.3021 23.026 17.5 22.7969C17.6979 22.5573 17.875 22.3229 18.0312 22.0938C18.1875 21.8542 18.3125 21.6302 18.4062 21.4219C18.5104 21.2031 18.5625 21 18.5625 20.8125C18.5625 20.75 18.5521 20.6667 18.5312 20.5625C18.5208 20.4583 18.4844 20.3594 18.4219 20.2656C18.3594 20.1615 18.2656 20.0781 18.1406 20.0156C18.026 19.9427 17.8698 19.9062 17.6719 19.9062C17.4323 19.9062 17.1771 19.9896 16.9062 20.1562C16.6354 20.3229 16.3542 20.5625 16.0625 20.875C15.7812 21.1771 15.4896 21.5521 15.1875 22C14.8958 22.4375 14.6042 22.9271 14.3125 23.4688C14.3542 24.2188 14.401 24.9427 14.4531 25.6406C14.5052 26.3385 14.5521 27.0312 14.5938 27.7188C14.6458 28.4167 14.6823 29.125 14.7031 29.8438C14.7344 30.5625 14.75 31.3177 14.75 32.1094C14.75 33.9427 14.6458 35.5469 14.4375 36.9219C14.2396 38.2969 13.9792 39.4427 13.6562 40.3594C13.3438 41.2865 12.9896 41.9792 12.5938 42.4375C12.1875 42.9062 11.7865 43.1406 11.3906 43.1406C11.1615 43.1406 10.9375 43.0469 10.7188 42.8594C10.4896 42.6719 10.2917 42.3958 10.125 42.0312C9.94792 41.6771 9.80729 41.2396 9.70312 40.7188C9.58854 40.1979 9.53125 39.599 9.53125 38.9219C9.53125 37.9323 9.625 36.8333 9.8125 35.625C10 34.4167 10.2656 33.1771 10.6094 31.9062C10.9427 30.6458 11.3385 29.3854 11.7969 28.125C12.2552 26.875 12.75 25.7031 13.2812 24.6094V23.0469C13.2812 21.8177 13.3281 20.7396 13.4219 19.8125C13.526 18.875 13.6406 18.0938 13.7656 17.4688C13.8906 16.8333 14.0104 16.3594 14.125 16.0469C14.25 15.724 14.3333 15.5625 14.375 15.5625ZM13.6406 32.75C13.6406 31.8333 13.625 31.0625 13.5938 30.4375C13.5729 29.8229 13.5417 29.2604 13.5 28.75C13.4688 28.25 13.4323 27.75 13.3906 27.25C13.3594 26.75 13.3333 26.1615 13.3125 25.4844C12.9167 26.3802 12.5469 27.3385 12.2031 28.3594C11.8594 29.3906 11.5573 30.4531 11.2969 31.5469C11.026 32.6406 10.8177 33.7448 10.6719 34.8594C10.5156 35.974 10.4375 37.0625 10.4375 38.125C10.4375 38.5312 10.4583 38.9844 10.5 39.4844C10.5417 39.9844 10.6198 40.4531 10.7344 40.8906C10.8385 41.3281 10.9792 41.6927 11.1562 41.9844C11.3229 42.2865 11.5417 42.4375 11.8125 42.4375C12.0208 42.4375 12.2135 42.3073 12.3906 42.0469C12.5677 41.7865 12.724 41.4271 12.8594 40.9688C12.9948 40.5104 13.1094 39.9688 13.2031 39.3438C13.3073 38.7292 13.3906 38.0625 13.4531 37.3438C13.5156 36.625 13.5625 35.875 13.5938 35.0938C13.625 34.3125 13.6406 33.5312 13.6406 32.75ZM25.0938 21.7969C25.0938 21.724 25.0938 21.6354 25.0938 21.5312C25.1042 21.4271 25.1094 21.3229 25.1094 21.2188C25.1094 21.1146 25.1094 21.026 25.1094 20.9531C25.1198 20.8698 25.125 20.8125 25.125 20.7812C25.125 20.7083 25.1094 20.6615 25.0781 20.6406C25.0573 20.6198 25.0312 20.6771 25 20.8125C24.9792 20.8542 24.9375 20.974 24.875 21.1719C24.8125 21.3698 24.724 21.6094 24.6094 21.8906C24.4948 22.1615 24.3542 22.4583 24.1875 22.7812C24.0312 23.0938 23.8438 23.3854 23.625 23.6562C23.4062 23.9167 23.1615 24.1354 22.8906 24.3125C22.6198 24.4896 22.3229 24.5781 22 24.5781C21.5104 24.5781 21.1615 24.4479 20.9531 24.1875C20.7552 23.9167 20.6562 23.5156 20.6562 22.9844C20.6562 22.8281 20.6719 22.6042 20.7031 22.3125C20.7344 22.0104 20.7708 21.7031 20.8125 21.3906C20.8542 21.0677 20.8906 20.7656 20.9219 20.4844C20.9531 20.1927 20.9688 19.9688 20.9688 19.8125C20.9688 19.3646 20.8542 19.1406 20.625 19.1406C20.5729 19.1406 20.526 19.1458 20.4844 19.1562C20.4427 19.1667 20.4115 19.1719 20.3906 19.1719C20.3073 19.1719 20.2656 19.1302 20.2656 19.0469C20.2656 19.0156 20.3073 18.9635 20.3906 18.8906C20.4844 18.8073 20.6771 18.7656 20.9688 18.7656C21.3021 18.7656 21.5312 18.8906 21.6562 19.1406C21.7917 19.3906 21.8594 19.6823 21.8594 20.0156C21.8594 20.1615 21.8438 20.3698 21.8125 20.6406C21.7917 20.901 21.7656 21.1771 21.7344 21.4688C21.7031 21.7604 21.6719 22.0417 21.6406 22.3125C21.6198 22.5729 21.6094 22.7656 21.6094 22.8906C21.6094 23.2865 21.6719 23.5677 21.7969 23.7344C21.9323 23.8906 22.1146 23.9688 22.3438 23.9688C22.5625 23.9688 22.776 23.8854 22.9844 23.7188C23.2031 23.5417 23.401 23.3333 23.5781 23.0938C23.7656 22.8438 23.9271 22.5885 24.0625 22.3281C24.1979 22.0677 24.3073 21.849 24.3906 21.6719C24.474 21.4427 24.5469 21.1927 24.6094 20.9219C24.6719 20.651 24.7292 20.3802 24.7812 20.1094C24.8438 19.8281 24.8958 19.5625 24.9375 19.3125C24.9792 19.0625 25.0208 18.8438 25.0625 18.6562C25.0833 18.5625 25.1823 18.5 25.3594 18.4688C25.5365 18.4271 25.7135 18.4062 25.8906 18.4062C25.9844 18.4062 26.0312 18.4375 26.0312 18.5C26.0312 18.7604 26.026 19.1146 26.0156 19.5625C26.0052 20.0104 26 20.4688 26 20.9375C26 22.1042 26.0677 22.9479 26.2031 23.4688C26.349 23.9792 26.6302 24.2344 27.0469 24.2344C27.1406 24.2344 27.2188 24.224 27.2812 24.2031C27.3542 24.1823 27.4167 24.1719 27.4688 24.1719C27.5104 24.1719 27.5312 24.1927 27.5312 24.2344C27.5312 24.2031 27.5312 24.2083 27.5312 24.25C27.5312 24.2917 27.5052 24.349 27.4531 24.4219C27.4115 24.4844 27.3229 24.5469 27.1875 24.6094C27.0625 24.6615 26.8698 24.6875 26.6094 24.6875C26.3281 24.6875 26.0938 24.6406 25.9062 24.5469C25.7292 24.4427 25.5833 24.276 25.4688 24.0469C25.3542 23.8177 25.2656 23.5208 25.2031 23.1562C25.151 22.7812 25.1146 22.3281 25.0938 21.7969ZM32.9375 17.2812C33.0729 17.3125 33.1406 17.401 33.1406 17.5469C33.1406 17.5885 33.125 17.6458 33.0938 17.7188C33.0729 17.7812 33.0417 17.849 33 17.9219C32.9688 17.9844 32.9323 18.0417 32.8906 18.0938C32.849 18.1354 32.8125 18.1562 32.7812 18.1562C32.7292 18.1562 32.6667 18.1406 32.5938 18.1094C32.5208 18.0677 32.4167 18.026 32.2812 17.9844C32.1458 17.9323 31.9688 17.8906 31.75 17.8594C31.5312 17.8177 31.2448 17.7969 30.8906 17.7969C30.3906 17.7969 29.974 17.8906 29.6406 18.0781C29.3073 18.2656 29.1406 18.526 29.1406 18.8594C29.1406 19.099 29.2396 19.3021 29.4375 19.4688C29.6458 19.625 29.8854 19.75 30.1562 19.8438C30.4375 19.9375 30.7188 20.0052 31 20.0469C31.2917 20.0885 31.5156 20.1094 31.6719 20.1094C31.7865 20.1094 31.8594 20.1302 31.8906 20.1719C31.9323 20.2031 31.9531 20.2344 31.9531 20.2656C31.9531 20.349 31.9167 20.401 31.8438 20.4219C31.7812 20.4323 31.6979 20.4531 31.5938 20.4844C31.3229 20.5781 31.0469 20.6979 30.7656 20.8438C30.4844 20.9792 30.224 21.1458 29.9844 21.3438C29.7552 21.5312 29.5677 21.7448 29.4219 21.9844C29.276 22.224 29.2031 22.4844 29.2031 22.7656C29.2031 23.2344 29.3906 23.625 29.7656 23.9375C30.151 24.2396 30.6875 24.3906 31.375 24.3906C32.1562 24.3906 32.8073 24.276 33.3281 24.0469C33.849 23.8073 34.276 23.5312 34.6094 23.2188C34.9531 22.9062 35.2188 22.5938 35.4062 22.2812C35.5938 21.9583 35.7344 21.7135 35.8281 21.5469L35.9219 21.6094C35.7448 22.1198 35.5156 22.5938 35.2344 23.0312C34.9635 23.4688 34.6302 23.849 34.2344 24.1719C33.849 24.4844 33.3958 24.7344 32.875 24.9219C32.3542 25.099 31.7604 25.1875 31.0938 25.1875C30.6875 25.1875 30.3125 25.1354 29.9688 25.0312C29.625 24.9375 29.3281 24.8021 29.0781 24.625C28.8281 24.4479 28.6354 24.2292 28.5 23.9688C28.3646 23.7083 28.2969 23.4115 28.2969 23.0781C28.2969 22.6927 28.3854 22.3594 28.5625 22.0781C28.7396 21.7969 28.9427 21.5677 29.1719 21.3906C29.401 21.2031 29.625 21.0625 29.8438 20.9688C30.0729 20.8646 30.2344 20.7917 30.3281 20.75C30.0052 20.6979 29.7188 20.6094 29.4688 20.4844C29.2604 20.3698 29.0677 20.2135 28.8906 20.0156C28.7135 19.8073 28.625 19.526 28.625 19.1719C28.625 18.849 28.7031 18.5573 28.8594 18.2969C29.0156 18.026 29.224 17.8021 29.4844 17.625C29.7552 17.4479 30.0625 17.3125 30.4062 17.2188C30.7604 17.1146 31.1354 17.0625 31.5312 17.0625C31.7604 17.0625 31.9896 17.0781 32.2188 17.1094C32.4583 17.1406 32.6979 17.1979 32.9375 17.2812ZM36.2969 18.0312C36.349 18.0312 36.3906 18.0729 36.4219 18.1562C36.4531 18.2396 36.474 18.3385 36.4844 18.4531C36.5052 18.5677 36.5156 18.6927 36.5156 18.8281C36.5156 18.9531 36.5156 19.0677 36.5156 19.1719C36.5156 19.4427 36.5052 19.724 36.4844 20.0156C36.474 20.2969 36.4583 20.5729 36.4375 20.8438C36.4271 21.1042 36.4167 21.349 36.4062 21.5781C36.3958 21.7969 36.3906 21.9792 36.3906 22.125C36.3906 22.3958 36.401 22.6146 36.4219 22.7812C36.4427 22.9375 36.4948 23.0156 36.5781 23.0156C36.6302 23.0156 36.6979 22.9479 36.7812 22.8125C36.8646 22.6771 36.9531 22.5156 37.0469 22.3281C37.151 22.1302 37.25 21.9219 37.3438 21.7031C37.4375 21.4844 37.526 21.2917 37.6094 21.125C37.7135 20.9062 37.8281 20.6667 37.9531 20.4062C38.0885 20.1354 38.2292 19.8854 38.375 19.6562C38.5208 19.4167 38.6719 19.2188 38.8281 19.0625C38.9948 18.9062 39.1667 18.8281 39.3438 18.8281C39.4583 18.8281 39.5573 18.8594 39.6406 18.9219C39.7344 18.9844 39.8125 19.0677 39.875 19.1719C39.9375 19.2656 39.9844 19.3698 40.0156 19.4844C40.0573 19.5885 40.0885 19.6875 40.1094 19.7812C40.1406 20.0208 40.1719 20.401 40.2031 20.9219C40.2448 21.4323 40.2969 21.9792 40.3594 22.5625C40.4115 23.1458 40.5521 23.5729 40.7812 23.8438C41.0104 24.1042 41.3073 24.2344 41.6719 24.2344C41.8177 24.2344 41.9323 24.224 42.0156 24.2031C42.1094 24.1823 42.1875 24.1719 42.25 24.1719C42.3021 24.1719 42.3125 24.224 42.2812 24.3281C42.2708 24.349 42.2448 24.3802 42.2031 24.4219C42.1719 24.4531 42.1146 24.4896 42.0312 24.5312C41.9479 24.5729 41.8333 24.6094 41.6875 24.6406C41.5521 24.6719 41.3854 24.6875 41.1875 24.6875C40.8542 24.6875 40.5781 24.6354 40.3594 24.5312C40.1406 24.4167 39.9635 24.2396 39.8281 24C39.6927 23.7604 39.5938 23.4531 39.5312 23.0781C39.4688 22.6927 39.4271 22.2344 39.4062 21.7031C39.3854 21.4531 39.3646 21.2135 39.3438 20.9844C39.3333 20.7448 39.3073 20.5365 39.2656 20.3594C39.2344 20.1719 39.1875 20.026 39.125 19.9219C39.0625 19.8073 38.974 19.75 38.8594 19.75C38.7656 19.75 38.651 19.8438 38.5156 20.0312C38.3906 20.2188 38.2656 20.4427 38.1406 20.7031C38.0156 20.9531 37.8958 21.2135 37.7812 21.4844C37.6771 21.7552 37.5885 21.9688 37.5156 22.125C37.2865 22.6146 37.0938 23.0156 36.9375 23.3281C36.7917 23.6406 36.6302 23.9427 36.4531 24.2344C36.401 24.3177 36.3438 24.3854 36.2812 24.4375C36.2292 24.4896 36.1615 24.5156 36.0781 24.5156C35.9531 24.5156 35.8542 24.4115 35.7812 24.2031C35.7083 23.9948 35.651 23.7552 35.6094 23.4844C35.5781 23.2135 35.5573 22.9427 35.5469 22.6719C35.5365 22.3906 35.5312 22.1771 35.5312 22.0312C35.5312 21.8646 35.5312 21.6615 35.5312 21.4219C35.5417 21.1823 35.5521 20.9479 35.5625 20.7188C35.5729 20.4896 35.5781 20.2812 35.5781 20.0938C35.5885 19.9062 35.5938 19.7812 35.5938 19.7188C35.5938 19.6562 35.5885 19.5729 35.5781 19.4688C35.5781 19.3542 35.5781 19.2448 35.5781 19.1406C35.5781 19.026 35.5729 18.9271 35.5625 18.8438C35.5625 18.75 35.5625 18.6875 35.5625 18.6562C35.5625 18.5729 35.5833 18.5052 35.625 18.4531C35.6771 18.3906 35.7292 18.3438 35.7812 18.3125C35.8333 18.2812 35.9167 18.2292 36.0312 18.1562C36.1458 18.0729 36.2344 18.0312 36.2969 18.0312ZM47.875 19.5938C47.7812 19.5938 47.6927 19.5417 47.6094 19.4375C47.5365 19.3229 47.4375 19.2031 47.3125 19.0781C47.1875 18.9531 47.026 18.8385 46.8281 18.7344C46.6406 18.6198 46.3906 18.5625 46.0781 18.5625C45.6406 18.5625 45.2344 18.6771 44.8594 18.9062C44.4844 19.125 44.1615 19.4062 43.8906 19.75C43.6198 20.0833 43.4062 20.4531 43.25 20.8594C43.1042 21.2552 43.0312 21.6302 43.0312 21.9844C43.0312 22.5365 43.1719 22.9896 43.4531 23.3438C43.7344 23.6979 44.1094 23.875 44.5781 23.875C44.9427 23.875 45.2604 23.8073 45.5312 23.6719C45.8125 23.526 46.0469 23.3385 46.2344 23.1094C46.1719 22.8281 46.1406 22.4792 46.1406 22.0625C46.1406 21.6146 46.1719 21.25 46.2344 20.9688C46.3073 20.6875 46.3906 20.4688 46.4844 20.3125C46.5885 20.1562 46.6927 20.0521 46.7969 20C46.901 19.9375 46.9896 19.9062 47.0625 19.9062C47.1458 19.9062 47.2396 19.9635 47.3438 20.0781C47.4583 20.1927 47.5156 20.3958 47.5156 20.6875C47.5156 21.0521 47.4479 21.4375 47.3125 21.8438C47.1875 22.2396 47.0104 22.6198 46.7812 22.9844C46.9062 23.3073 47.099 23.5417 47.3594 23.6875C47.6198 23.8333 47.9167 23.9062 48.25 23.9062C48.5417 23.9062 48.8125 23.8438 49.0625 23.7188C49.3229 23.5833 49.5625 23.4062 49.7812 23.1875C50.0104 22.9688 50.224 22.7188 50.4219 22.4375C50.6198 22.1458 50.8021 21.849 50.9688 21.5469L51.0625 21.6094C50.9375 22.0052 50.7708 22.3906 50.5625 22.7656C50.3542 23.1406 50.1146 23.474 49.8438 23.7656C49.5729 24.0573 49.276 24.2917 48.9531 24.4688C48.6406 24.6354 48.3125 24.7188 47.9688 24.7188C47.7083 24.7188 47.4219 24.6354 47.1094 24.4688C46.8073 24.2917 46.5573 23.9792 46.3594 23.5312C46.0365 23.9167 45.6667 24.2396 45.25 24.5C44.8333 24.75 44.3854 24.875 43.9062 24.875C43.6354 24.875 43.3906 24.8125 43.1719 24.6875C42.9531 24.5625 42.7656 24.3958 42.6094 24.1875C42.4635 23.9792 42.349 23.7344 42.2656 23.4531C42.1823 23.1719 42.1406 22.875 42.1406 22.5625C42.1406 22.0312 42.2552 21.5 42.4844 20.9688C42.724 20.4375 43.0365 19.9583 43.4219 19.5312C43.8177 19.1042 44.2656 18.7604 44.7656 18.5C45.276 18.2292 45.8073 18.0938 46.3594 18.0938C46.7656 18.0938 47.1042 18.1406 47.375 18.2344C47.6562 18.3177 47.8802 18.4219 48.0469 18.5469C48.2135 18.6615 48.3333 18.7812 48.4062 18.9062C48.4792 19.0312 48.5156 19.1302 48.5156 19.2031C48.5156 19.349 48.4375 19.4531 48.2812 19.5156C48.1354 19.5677 48 19.5938 47.875 19.5938ZM46.5625 21.6719C46.5625 22.0156 46.5938 22.3125 46.6562 22.5625C46.8125 22.2708 46.9271 21.974 47 21.6719C47.0729 21.3594 47.1094 21.0938 47.1094 20.875C47.1094 20.6146 47.0625 20.4844 46.9688 20.4844C46.875 20.4844 46.7812 20.599 46.6875 20.8281C46.6042 21.0573 46.5625 21.3385 46.5625 21.6719Z" fill="#012AFF"/>
</svg>
